# xmcd CD database file
#
# Track frame offsets:
#	150
#	17390
#	33610
#	53125
#	69900
#	87680
#	102642
#	123665
#	140392
#	160232
#	176742
#	192900
#	213547
#	244616
#
# Disc length: 3692 seconds
#
# Revision: 2
# Processed by: cddbd v1.4PL0 Copyright (c) Steve Scherf et al.
# Submitted via: NeoAudio 1.40Release
#
DISCID=c90e6a0e
DTITLE=LeAnn Rimes - I Need You
DYEAR=2002
DGENRE=Pop
TTITLE0=I Need You
TTITLE1=Can't Fight The Moonlight (Theme from 'Coyote Ugly')
TTITLE2=Written In The Stars (Duet with Elton John)
TTITLE3=You Are
TTITLE4=Soon
TTITLE5=But I Do Love You (From 'Coyote Ugly')
TTITLE6=One Of These Days
TTITLE7=Love Must Be Telling Me Something
TTITLE8=I Believe In You
TTITLE9=Together, Forever, Always
TTITLE10=Can't Fight The Moonlight (Latino Mix)
TTITLE11=Soon (Graham Stock Radio Edit)
TTITLE12=I Need You (Dave Aude Radio Edit)
TTITLE13=Data Track
EXTD=YEAR: 2002 ID3G: 13
EXTT0=
EXTT1=
EXTT2=
EXTT3=
EXTT4=
EXTT5=
EXTT6=
EXTT7=
EXTT8=
EXTT9=
EXTT10=
EXTT11=
EXTT12=
EXTT13=
PLAYORDER=
